<svg t="1660728866953" class="icon" viewBox="0 0 1024 1024" version="1.1" xmlns="http://www.w3.org/2000/svg" p-id="4035" width="16" height="16"><path d="M170.666667 375.466667c-10.24 0-17.066667-6.826667-17.066667-17.066667V17.066667c0-10.24 6.826667-17.066667 17.066667-17.066667s17.066667 6.826667 17.066666 17.066667v341.333333c0 10.24-6.826667 17.066667-17.066666 17.066667z" fill="" p-id="4036"></path><path d="M170.666667 375.466667c-3.413333 0-10.24 0-13.653334-3.413334l-68.266666-68.266666c-6.826667-6.826667-6.826667-17.066667 0-23.893334s17.066667-6.826667 23.893333 0L170.666667 334.506667l54.613333-54.613334c6.826667-6.826667 17.066667-6.826667 23.893333-3.413333s6.826667 17.066667 0 23.893333l-68.266666 68.266667c-3.413333 6.826667-6.826667 6.826667-10.24 6.826667zM699.733333 1024h-105.813333c-51.2 0-102.4-20.48-136.533333-54.613333L136.533333 665.6c-10.24-10.24-17.066667-27.306667-17.066666-40.96s6.826667-34.133333 17.066666-44.373333c37.546667-37.546667 102.4-40.96 143.36-10.24l75.093334 61.44v-375.466667C358.4 211.626667 399.36 170.666667 443.733333 170.666667c23.893333 0 40.96 10.24 58.026667 23.893333 13.653333-34.133333 40.96-58.026667 78.506667-58.026667 44.373333 0 85.333333 40.96 85.333333 85.333334V443.733333c13.653333-10.24 30.72-17.066667 51.2-17.066666 40.96 0 75.093333 30.72 81.92 68.266666 13.653333-10.24 34.133333-17.066667 54.613333-17.066666 47.786667 0 85.333333 37.546667 85.333334 81.92v235.52c0 126.293333-105.813333 228.693333-238.933334 228.693333zM218.453333 583.68c-20.48 0-40.96 6.826667-54.613333 20.48-3.413333 3.413333-6.826667 10.24-6.826667 17.066667s3.413333 13.653333 6.826667 17.066666l317.44 303.786667c30.72 27.306667 71.68 44.373333 116.053333 44.373333h105.813334c112.64 0 204.8-88.746667 204.8-197.973333v-235.52c0-27.306667-23.893333-47.786667-51.2-47.786667s-54.613333 17.066667-54.613334 44.373334v10.24c0 10.24-6.826667 17.066667-17.066666 17.066666s-17.066667-6.826667-17.066667-17.066666V512c0-27.306667-23.893333-51.2-51.2-51.2s-51.2 23.893333-51.2 51.2v51.2c0 10.24-6.826667 17.066667-17.066667 17.066667s-17.066667-6.826667-17.066666-17.066667v-341.333333c0-27.306667-23.893333-51.2-51.2-51.2-34.133333 0-47.786667 34.133333-51.2 47.786666v344.746667c0 10.24-6.826667 17.066667-17.066667 17.066667s-17.066667-6.826667-17.066667-17.066667V259.413333c0-23.893333-23.893333-54.613333-51.2-54.613333s-51.2 23.893333-51.2 51.2v409.6c0 6.826667-3.413333 13.653333-10.24 13.653333-6.826667 3.413333-13.653333 3.413333-17.066666 0l-102.4-81.92c-13.653333-10.24-30.72-13.653333-44.373334-13.653333z" fill="" p-id="4037"></path></svg>