<svg t="1660635686446" class="icon" viewBox="0 0 1024 1024" version="1.1" xmlns="http://www.w3.org/2000/svg" p-id="2346" width="32" height="32"><path d="M64 520a8 8 0 0 1-8-8C56 260.56 260.56 56 512 56a8 8 0 0 1 0 16C269.376 72 72 269.392 72 512a8 8 0 0 1-8 8zM560 72h-16a8 8 0 0 1 0-16h16a8 8 0 0 1 0 16zM512 968a8 8 0 0 1 0-16c242.608 0 440-197.392 440-440a8 8 0 0 1 16 0c0 251.44-204.56 456-456 456zM480 968h-16a8 8 0 0 1 0-16h16a8 8 0 0 1 0 16zM848 104h-64a8 8 0 0 1 0-16h64a8 8 0 0 1 0 16z" fill="#263238" p-id="2347"></path><path d="M816 136a8 8 0 0 1-8-8V64a8 8 0 0 1 16 0v64a8 8 0 0 1-8 8zM960 208h-64a8 8 0 0 1 0-16h64a8 8 0 0 1 0 16z" fill="#263238" p-id="2348"></path><path d="M928 240a8 8 0 0 1-8-8v-64a8 8 0 0 1 16 0v64a8 8 0 0 1-8 8z" fill="#263238" p-id="2349"></path><path d="M566.112 304h-108.224a16 16 0 0 1-14.304-23.152l54.112-108.224a16 16 0 0 1 28.624 0l54.112 108.224A16 16 0 0 1 566.112 304z" fill="#FFD740" p-id="2350"></path><path d="M566.112 312h-108.224a23.84 23.84 0 0 1-20.416-11.376 23.84 23.84 0 0 1-1.04-23.36l54.112-108.224c4.096-8.192 12.32-13.264 21.472-13.264s17.376 5.072 21.456 13.264l54.112 108.224c3.744 7.488 3.36 16.224-1.04 23.344s-12.048 11.392-20.432 11.392zM512 171.776a7.872 7.872 0 0 0-7.152 4.416l-54.112 108.224a7.84 7.84 0 0 0 0.352 7.776 7.872 7.872 0 0 0 6.8 3.792h108.224c4.032 0 6.112-2.656 6.816-3.792s2.144-4.192 0.336-7.776l-54.096-108.224a7.904 7.904 0 0 0-7.168-4.416z" fill="#263238" p-id="2351"></path><path d="M816 720h-128a16 16 0 0 1-16-16v-128a16 16 0 0 1 16-16h128a16 16 0 0 1 16 16v128a16 16 0 0 1-16 16z" fill="#4DB6AC" p-id="2352"></path><path d="M816 728h-128c-13.232 0-24-10.768-24-24v-128c0-13.232 10.768-24 24-24h128c13.232 0 24 10.768 24 24v128c0 13.232-10.768 24-24 24z m-128-160c-4.4 0-8 3.6-8 8v128c0 4.4 3.6 8 8 8h128c4.4 0 8-3.6 8-8v-128c0-4.4-3.6-8-8-8h-128zM512 808a294.528 294.528 0 0 1-163.504-49.344 8 8 0 1 1 8.848-13.312A278.8 278.8 0 0 0 512 792a278.72 278.72 0 0 0 154.656-46.672 8 8 0 0 1 8.832 13.344A294.56 294.56 0 0 1 512 808zM224.8 536a8 8 0 0 1-7.984-7.568l-0.304-4.64c-0.256-3.904-0.512-7.808-0.512-11.792a295.584 295.584 0 0 1 180.896-272.784 8.016 8.016 0 0 1 6.224 14.752A279.568 279.568 0 0 0 232 512c0 3.616 0.256 7.152 0.496 10.704l0.304 4.864a7.968 7.968 0 0 1-7.536 8.416l-0.464 0.016zM799.184 536l-0.432-0.016a8 8 0 0 1-7.552-8.416l0.32-4.864c0.24-3.552 0.48-7.088 0.48-10.704a279.6 279.6 0 0 0-171.104-258.032 8 8 0 1 1 6.208-14.752A295.616 295.616 0 0 1 808 512c0 3.984-0.272 7.888-0.528 11.792l-0.304 4.64a8 8 0 0 1-7.984 7.568z" fill="#263238" p-id="2353"></path><path d="M272 640m-80 0a80 80 0 1 0 160 0 80 80 0 1 0-160 0Z" fill="#40C4FF" p-id="2354"></path><path d="M272 728c-48.528 0-88-39.488-88-88s39.472-88 88-88 88 39.488 88 88-39.472 88-88 88z m0-160c-39.696 0-72 32.304-72 72s32.304 72 72 72 72-32.304 72-72-32.304-72-72-72zM512 616a103.36 103.36 0 0 1-73.536-30.464 8 8 0 0 1 11.312-11.312A87.392 87.392 0 0 0 512 600c23.504 0 45.6-9.152 62.224-25.776A87.36 87.36 0 0 0 600 512a8 8 0 0 1 16 0 103.36 103.36 0 0 1-30.464 73.536A103.36 103.36 0 0 1 512 616z" fill="#263238" p-id="2355"></path><path d="M416 520.016a8 8 0 0 1-8-8c0-27.776 10.816-53.904 30.464-73.568 40.544-40.528 106.544-40.528 147.072 0a8 8 0 0 1-11.312 11.312 88.096 88.096 0 0 0-124.448 0 87.456 87.456 0 0 0-25.776 62.256 8 8 0 0 1-8 8z" fill="#263238" p-id="2356"></path><path d="M416 532a8.032 8.032 0 0 1-5.664-2.336l-24-24a8 8 0 0 1 11.312-11.312L416 512.688l18.336-18.336a8 8 0 0 1 11.312 11.312l-24 24a8.032 8.032 0 0 1-5.648 2.336z" fill="#263238" p-id="2357"></path><path d="M632 532a8.032 8.032 0 0 1-5.664-2.336L608 511.312l-18.336 18.336a8 8 0 0 1-11.312-11.312l24-24a8 8 0 0 1 11.312 0l24 24a8 8 0 0 1-5.664 13.664z" fill="#263238" p-id="2358"></path></svg>